<svg xmlns="http://www.w3.org/2000/svg" viewBox="0 0 1700 950" width="1700" height="950" fill="none">
<defs><clipPath id="cell0"><rect x="98.0" y="60.0" width="137.0" height="115.0" rx="6.0" fill="#000"/></clipPath><clipPath id="cell1"><rect x="243.0" y="60.0" width="137.0" height="115.0" rx="6.0" fill="#000"/></clipPath><clipPath id="cell2"><rect x="388.0" y="60.0" width="137.0" height="115.0" rx="6.0" fill="#000"/></clipPath><clipPath id="cell3"><rect x="98.0" y="183.0" width="137.0" height="115.0" rx="6.0" fill="#000"/></clipPath><clipPath id="cell4"><rect x="243.0" y="183.0" width="137.0" height="115.0" rx="6.0" fill="#000"/></clipPath><clipPath id="cell5"><rect x="388.0" y="183.0" width="137.0" height="115.0" rx="6.0" fill="#000"/></clipPath><clipPath id="av2"><circle cx="456.5" cy="117.5" r="34.0" fill="#000"/></clipPath><clipPath id="av4"><circle cx="311.5" cy="240.5" r="34.0" fill="#000"/></clipPath><clipPath id="lbub"><path d="M 817.9 253.8 A 107 107 0 1 0 788.3 256.9 Q 797.2 270.6 806.1 284.3 Q 812.0 269.0 817.9 253.8 Z"/></clipPath><clipPath id="rbub"><path d="M 1003.4 259.9 A 98 98 0 1 0 976.3 257.1 Q 981.6 272.2 986.8 287.3 Q 995.1 273.6 1003.4 259.9 Z"/></clipPath><clipPath id="screen"><rect x="675.4" y="414.0" width="352.9" height="201.7" fill="#000"/></clipPath></defs>
<g><path d="M 548.0 95.0 L 650.0 95.0" fill="none" stroke="#1C2450" stroke-width="5.5" stroke-linecap="round" stroke-linejoin="round" stroke-dasharray="0.1 17"/><path d="M 1095.0 135.0 L 1178.0 135.0" fill="none" stroke="#1C2450" stroke-width="5.5" stroke-linecap="round" stroke-linejoin="round" stroke-dasharray="0.1 17"/><path d="M 540.0 220.0 L 600.0 220.0 L 600.0 470.0 L 606.0 470.0" fill="none" stroke="#1C2450" stroke-width="5.5" stroke-linecap="round" stroke-linejoin="round" stroke-dasharray="0.1 17"/><path d="M 852.0 300.0 L 852.0 347.0" fill="none" stroke="#1C2450" stroke-width="5.5" stroke-linecap="round" stroke-linejoin="round" stroke-dasharray="0.1 17"/><path d="M 1182.0 300.0 L 1058.0 300.0 L 1058.0 347.0" fill="none" stroke="#1C2450" stroke-width="5.5" stroke-linecap="round" stroke-linejoin="round" stroke-dasharray="0.1 17"/><path d="M 396.0 512.0 L 606.0 512.0" fill="none" stroke="#1C2450" stroke-width="5.5" stroke-linecap="round" stroke-linejoin="round" stroke-dasharray="0.1 17"/><path d="M 1234.0 512.0 L 1096.0 512.0" fill="none" stroke="#1C2450" stroke-width="5.5" stroke-linecap="round" stroke-linejoin="round" stroke-dasharray="0.1 17"/><path d="M 448.0 816.0 L 510.0 816.0 L 510.0 708.0 L 540.0 708.0" fill="none" stroke="#1C2450" stroke-width="5.5" stroke-linecap="round" stroke-linejoin="round" stroke-dasharray="0.1 17"/><path d="M 828.0 740.0 L 828.0 724.0" fill="none" stroke="#1C2450" stroke-width="5.5" stroke-linecap="round" stroke-linejoin="round" stroke-dasharray="0.1 17"/><path d="M 1140.0 720.0 L 1140.0 800.0 L 1210.0 800.0" fill="none" stroke="#1C2450" stroke-width="5.5" stroke-linecap="round" stroke-linejoin="round" stroke-dasharray="0.1 17"/><path d="M 1210.0 800.0 L 1195.0 791.0 L 1195.0 809.0 Z" fill="#1C2450"/></g>
<g><rect x="86.0" y="48.0" width="452.0" height="262.0" rx="12.0" fill="#13183A"/><rect x="98.0" y="60.0" width="137.0" height="115.0" rx="6.0" fill="#222C5E"/><rect x="243.0" y="60.0" width="137.0" height="115.0" rx="6.0" fill="#222C5E"/><rect x="388.0" y="60.0" width="137.0" height="115.0" rx="6.0" fill="#222C5E"/><rect x="98.0" y="183.0" width="137.0" height="115.0" rx="6.0" fill="#222C5E"/><rect x="243.0" y="183.0" width="137.0" height="115.0" rx="6.0" fill="#222C5E"/><rect x="388.0" y="183.0" width="137.0" height="115.0" rx="6.0" fill="#222C5E"/><g clip-path="url(#cell0)"><path d="M 108.5 175.0 C 108.5 141.0 136.5 127.0 166.5 127.0 C 196.5 127.0 224.5 141.0 224.5 175.0 Z" fill="#2EC1D4"/><circle cx="166.5" cy="106.0" r="26.0" fill="#6E4A2E"/><path d="M 139.5 104.0 C 136.5 68.0 196.5 68.0 193.5 104.0 C 176.5 88.0 156.5 88.0 139.5 104.0 Z" fill="#2A2336"/></g><g clip-path="url(#cell1)"><path d="M 253.5 175.0 C 253.5 141.0 281.5 127.0 311.5 127.0 C 341.5 127.0 369.5 141.0 369.5 175.0 Z" fill="#1F8A4C"/><circle cx="311.5" cy="106.0" r="26.0" fill="#C68A5B"/><path d="M 284.5 102.0 C 277.5 66.0 345.5 66.0 338.5 102.0 C 323.5 86.0 299.5 86.0 284.5 102.0 Z" fill="#E8601C"/></g><circle cx="456.5" cy="117.5" r="34.0" fill="#1F8A4C"/><g clip-path="url(#av2)"><circle cx="456.5" cy="110.5" r="13.0" fill="#FFFFFF"/><ellipse cx="456.5" cy="139.5" rx="20" ry="18" fill="#FFFFFF"/></g><g clip-path="url(#cell3)"><path d="M 108.5 298.0 C 108.5 264.0 136.5 250.0 166.5 250.0 C 196.5 250.0 224.5 264.0 224.5 298.0 Z" fill="#1F8A4C"/><circle cx="166.5" cy="229.0" r="26.0" fill="#C68A5B"/><path d="M 138.5 239.0 C 134.5 195.0 198.5 195.0 194.5 239.0 C 184.5 223.0 148.5 223.0 138.5 239.0 Z" fill="#F06FA2"/></g><circle cx="311.5" cy="240.5" r="34.0" fill="#2EC1D4"/><g clip-path="url(#av4)"><circle cx="311.5" cy="233.5" r="13.0" fill="#FFFFFF"/><ellipse cx="311.5" cy="262.5" rx="20" ry="18" fill="#FFFFFF"/></g><g clip-path="url(#cell5)"><path d="M 398.5 298.0 C 398.5 264.0 426.5 250.0 456.5 250.0 C 486.5 250.0 514.5 264.0 514.5 298.0 Z" fill="#3F6FB5"/><circle cx="456.5" cy="229.0" r="26.0" fill="#A9713F"/><path d="M 429.5 227.0 C 426.5 197.0 486.5 197.0 483.5 227.0 C 470.5 215.0 442.5 215.0 429.5 227.0 Z" fill="#B9BEC9"/></g><path d="M 196 32 Q 196 22 206 22 L 256 22 Q 266 22 266 32 L 266 56 Q 266 66 256 66 L 224 66 L 210 78 L 214 66 L 206 66 Q 196 66 196 56 Z" fill="#FFC629"/><circle cx="216.0" cy="44.0" r="4.0" fill="#13183A"/><circle cx="231.0" cy="44.0" r="4.0" fill="#13183A"/><circle cx="246.0" cy="44.0" r="4.0" fill="#13183A"/><circle cx="250.0" cy="326.0" r="6.0" fill="#1C2450"/><circle cx="274.0" cy="326.0" r="6.0" fill="#1C2450"/><circle cx="298.0" cy="326.0" r="6.0" fill="#1C2450"/><circle cx="322.0" cy="326.0" r="6.0" fill="#2EC1D4"/></g>
<g><path d="M 1003.4 259.9 A 98 98 0 1 0 976.3 257.1 Q 981.6 272.2 986.8 287.3 Q 995.1 273.6 1003.4 259.9 Z" fill="#FFFFFF" stroke="#C5C9D2" stroke-width="1.8" stroke-linecap="round" stroke-linejoin="round"/><path d="M 817.9 253.8 A 107 107 0 1 0 788.3 256.9 Q 797.2 270.6 806.1 284.3 Q 812.0 269.0 817.9 253.8 Z" fill="#FFFFFF" stroke="#C5C9D2" stroke-width="1.8" stroke-linecap="round" stroke-linejoin="round"/><g clip-path="url(#lbub)"><path d="M 736 252 C 734 150 744 86 792 84 C 840 86 850 150 848 252 Z" fill="#1E2A66"/><path d="M 738 256 C 738 198 756 160 792 160 C 828 160 846 198 846 256 Z" fill="#FFC629"/><path d="M 744 150 C 740 196 742 230 749 250 L 763 248 C 758 214 760 180 760 150 Z" fill="#1E2A66"/><path d="M 840 150 C 844 196 842 230 835 250 L 821 248 C 826 214 824 180 824 150 Z" fill="#1E2A66"/><circle cx="792.0" cy="120.0" r="30.0" fill="#A56B43"/><path d="M 764 102 C 768 92 816 92 820 102 C 804 97 780 97 764 102 Z" fill="#1E2A66"/><path d="M 824 196 L 846 170 L 852 122" fill="none" stroke="#FFC629" stroke-width="24" stroke-linecap="round" stroke-linejoin="round"/><circle cx="854.0" cy="113.0" r="13.0" fill="#A56B43"/></g><g clip-path="url(#rbub)"><circle cx="1036.0" cy="126.0" r="12.0" fill="#17223E"/><path d="M 950 262 C 950 206 972 166 1004 166 C 1036 166 1056 206 1056 262 Z" fill="#16C4D4"/><path d="M 980 202 L 956 218 L 939 230" fill="none" stroke="#16C4D4" stroke-width="22" stroke-linecap="round" stroke-linejoin="round"/><circle cx="936.0" cy="232.0" r="11.0" fill="#7E5337"/><circle cx="1004.0" cy="128.0" r="28.0" fill="#7E5337"/><path d="M 980 128 C 978 96 1034 96 1034 128 C 1016 110 998 110 980 128 Z" fill="#17223E"/></g><path d="M 832 50 C 872 16 916 18 948 42" fill="none" stroke="#F76FA2" stroke-width="12" stroke-linecap="round" stroke-linejoin="round"/><path d="M 958.0 50.0 L 947.9 23.6 L 929.8 47.5 Z" fill="#F76FA2"/><path d="M 950 252 C 910 286 858 284 822 256" fill="none" stroke="#F76FA2" stroke-width="12" stroke-linecap="round" stroke-linejoin="round"/><path d="M 812.0 249.0 L 821.7 275.6 L 840.1 252.0 Z" fill="#F76FA2"/><path d="M 671.7 75.0 L 704.3 75.0 Q 719.0 75.0 719.0 89.7 L 719.0 106.3 Q 719.0 121.0 704.3 121.0 L 700.0 121.0 L 698.0 132.0 L 688.0 121.0 L 671.7 121.0 Q 657.0 121.0 657.0 106.3 L 657.0 89.7 Q 657.0 75.0 671.7 75.0 Z" fill="#2EC1D4"/><circle cx="674.4" cy="97.0" r="3.4" fill="#1C2450"/><circle cx="688.0" cy="97.0" r="3.4" fill="#1C2450"/><circle cx="701.6" cy="97.0" r="3.4" fill="#1C2450"/><path d="M 914.4 89.0 L 945.6 89.0 Q 959.0 89.0 959.0 102.4 L 959.0 117.6 Q 959.0 131.0 945.6 131.0 L 942.6 131.0 L 942.0 142.0 L 930.6 131.0 L 914.4 131.0 Q 901.0 131.0 901.0 117.6 L 901.0 102.4 Q 901.0 89.0 914.4 89.0 Z" fill="#FFC629"/><circle cx="917.2" cy="109.0" r="3.4" fill="#1C2450"/><circle cx="930.0" cy="109.0" r="3.4" fill="#1C2450"/><circle cx="942.8" cy="109.0" r="3.4" fill="#1C2450"/></g>
<g><rect x="1182.0" y="52.0" width="476.0" height="268.0" rx="12.0" fill="#FFFFFF" stroke="#3E2657" stroke-width="3"/><path d="M 1185 96 L 1185 65 Q 1185 55 1195 55 L 1645 55 Q 1655 55 1655 65 L 1655 96 Z" fill="#3E2657"/><rect x="1206.0" y="68.0" width="120.0" height="14.0" rx="7.0" fill="#6B4A8A"/><rect x="1240.0" y="130.0" width="5.0" height="124.0" rx="2.5" fill="#2F6FD6"/><circle cx="1242.5" cy="132.0" r="7.0" fill="#54356F"/><circle cx="1242.5" cy="172.0" r="7.0" fill="#54356F"/><circle cx="1242.5" cy="212.0" r="7.0" fill="#54356F"/><circle cx="1242.5" cy="252.0" r="7.0" fill="#54356F"/><rect x="1272.0" y="123.0" width="300.0" height="8.0" rx="4.0" fill="#CCD1DA"/><rect x="1272.0" y="135.0" width="220.0" height="8.0" rx="4.0" fill="#CCD1DA"/><rect x="1596.0" y="120.0" width="24.0" height="24.0" rx="4.0" fill="#FFFFFF" stroke="#1C2450" stroke-width="2.4"/><path d="M 1603.0 132.0 L 1606.5 136.0 L 1613.5 127.5" fill="none" stroke="#1C2450" stroke-width="2.6" stroke-linecap="round" stroke-linejoin="round"/><rect x="1272.0" y="163.0" width="300.0" height="8.0" rx="4.0" fill="#CCD1DA"/><rect x="1272.0" y="175.0" width="170.0" height="8.0" rx="4.0" fill="#CCD1DA"/><rect x="1596.0" y="160.0" width="24.0" height="24.0" rx="4.0" fill="#FFFFFF" stroke="#1C2450" stroke-width="2.4"/><path d="M 1603.0 172.0 L 1606.5 176.0 L 1613.5 167.5" fill="none" stroke="#1C2450" stroke-width="2.6" stroke-linecap="round" stroke-linejoin="round"/><rect x="1272.0" y="203.0" width="300.0" height="8.0" rx="4.0" fill="#CCD1DA"/><rect x="1272.0" y="215.0" width="220.0" height="8.0" rx="4.0" fill="#CCD1DA"/><rect x="1596.0" y="200.0" width="24.0" height="24.0" rx="4.0" fill="#FFFFFF" stroke="#1C2450" stroke-width="2.4"/><path d="M 1603.0 212.0 L 1606.5 216.0 L 1613.5 207.5" fill="none" stroke="#1C2450" stroke-width="2.6" stroke-linecap="round" stroke-linejoin="round"/><rect x="1272.0" y="243.0" width="300.0" height="8.0" rx="4.0" fill="#CCD1DA"/><rect x="1272.0" y="255.0" width="170.0" height="8.0" rx="4.0" fill="#CCD1DA"/><circle cx="1608.0" cy="252.0" r="12.0" fill="#FFFFFF" stroke="#AEB4C0" stroke-width="2.4"/></g>
<g><rect x="86.0" y="378.0" width="306.0" height="272.0" rx="10.0" fill="#FFFFFF" stroke="#E2E5EA" stroke-width="1.6"/><path d="M 86 412 L 86 388 Q 86 378 96 378 L 382 378 Q 392 378 392 388 L 392 412 Z" fill="#1F8A4C"/><circle cx="109.0" cy="390.0" r="4.0" fill="#FFFFFF"/><path d="M 103 405 C 103 397 115 397 115 405 Z" fill="#FFFFFF"/><circle cx="125.0" cy="390.0" r="4.0" fill="#FFFFFF"/><path d="M 119 405 C 119 397 131 397 131 405 Z" fill="#FFFFFF"/><circle cx="141.0" cy="390.0" r="4.0" fill="#FFFFFF"/><path d="M 135 405 C 135 397 147 397 147 405 Z" fill="#FFFFFF"/><circle cx="118.0" cy="432.0" r="17.0" fill="#3F6FB5"/><rect x="150.0" y="423.0" width="156.0" height="9.0" rx="4.0" fill="#CCD1DA"/><rect x="150.0" y="435.0" width="112.0" height="9.0" rx="4.0" fill="#CCD1DA"/><circle cx="360.0" cy="432.0" r="13.0" fill="#1F8A4C"/><path d="M 355.0 432.0 L 358.5 436.0 L 365.5 427.5" fill="none" stroke="#FFFFFF" stroke-width="2.6" stroke-linecap="round" stroke-linejoin="round"/><circle cx="118.0" cy="492.0" r="17.0" fill="#E8601C"/><rect x="150.0" y="483.0" width="156.0" height="9.0" rx="4.0" fill="#CCD1DA"/><rect x="150.0" y="495.0" width="112.0" height="9.0" rx="4.0" fill="#CCD1DA"/><circle cx="360.0" cy="492.0" r="12.0" fill="#FFC629"/><circle cx="118.0" cy="552.0" r="17.0" fill="#F06FA2"/><rect x="150.0" y="543.0" width="156.0" height="9.0" rx="4.0" fill="#CCD1DA"/><rect x="150.0" y="555.0" width="112.0" height="9.0" rx="4.0" fill="#CCD1DA"/><circle cx="360.0" cy="552.0" r="12.0" fill="#FFFFFF" stroke="#AEB4C0" stroke-width="2.4"/><rect x="104.0" y="602.0" width="270.0" height="24.0" rx="5.0" fill="#1F8A4C"/></g>
<g><rect x="1236.0" y="372.0" width="422.0" height="302.0" rx="12.0" fill="#13183A"/><circle cx="1262.0" cy="394.0" r="6.0" fill="#C9CDD8"/><circle cx="1282.0" cy="394.0" r="6.0" fill="#9AA0B4"/><circle cx="1302.0" cy="394.0" r="6.0" fill="#6E7596"/><path d="M 1270.0 432.0 L 1262.0 438.0 L 1270.0 444.0" fill="none" stroke="#2EC1D4" stroke-width="3.5" stroke-linecap="round" stroke-linejoin="round"/><rect x="1280.0" y="432.0" width="30.0" height="12.0" rx="3.0" fill="#F06FA2"/><rect x="1318.0" y="432.0" width="22.0" height="12.0" rx="3.0" fill="#E8601C"/><rect x="1348.0" y="432.0" width="18.0" height="12.0" rx="3.0" fill="#1F8A4C"/><path d="M 1374.0 432.0 L 1382.0 438.0 L 1374.0 444.0" fill="none" stroke="#2EC1D4" stroke-width="3.5" stroke-linecap="round" stroke-linejoin="round"/><path d="M 1292.0 468.0 L 1284.0 474.0 L 1292.0 480.0" fill="none" stroke="#2EC1D4" stroke-width="3.5" stroke-linecap="round" stroke-linejoin="round"/><rect x="1302.0" y="468.0" width="24.0" height="12.0" rx="3.0" fill="#F06FA2"/><rect x="1334.0" y="468.0" width="70.0" height="12.0" rx="3.0" fill="#1F8A4C"/><path d="M 1412.0 468.0 L 1420.0 474.0 L 1412.0 480.0" fill="none" stroke="#2EC1D4" stroke-width="3.5" stroke-linecap="round" stroke-linejoin="round"/><path d="M 1292.0 504.0 L 1284.0 510.0 L 1292.0 516.0" fill="none" stroke="#2EC1D4" stroke-width="3.5" stroke-linecap="round" stroke-linejoin="round"/><rect x="1302.0" y="504.0" width="30.0" height="12.0" rx="3.0" fill="#F06FA2"/><rect x="1340.0" y="504.0" width="60.0" height="12.0" rx="3.0" fill="#FFC629"/><rect x="1408.0" y="504.0" width="46.0" height="12.0" rx="3.0" fill="#1F8A4C"/><path d="M 1462.0 504.0 L 1470.0 510.0 L 1462.0 516.0" fill="none" stroke="#2EC1D4" stroke-width="3.5" stroke-linecap="round" stroke-linejoin="round"/><path d="M 1292.0 540.0 L 1284.0 546.0 L 1292.0 552.0" fill="none" stroke="#2EC1D4" stroke-width="3.5" stroke-linecap="round" stroke-linejoin="round"/><rect x="1302.0" y="540.0" width="22.0" height="12.0" rx="3.0" fill="#F06FA2"/><rect x="1332.0" y="540.0" width="28.0" height="12.0" rx="3.0" fill="#1F8A4C"/><path d="M 1368.0 540.0 L 1376.0 546.0 L 1368.0 552.0" fill="none" stroke="#2EC1D4" stroke-width="3.5" stroke-linecap="round" stroke-linejoin="round"/><rect x="1284.0" y="584.0" width="150.0" height="12.0" rx="3.0" fill="#54356F"/><path d="M 1270.0 616.0 L 1262.0 622.0 L 1270.0 628.0" fill="none" stroke="#2EC1D4" stroke-width="3.5" stroke-linecap="round" stroke-linejoin="round"/><rect x="1280.0" y="616.0" width="20.0" height="12.0" rx="3.0" fill="#F06FA2"/><path d="M 1308.0 616.0 L 1316.0 622.0 L 1308.0 628.0" fill="none" stroke="#2EC1D4" stroke-width="3.5" stroke-linecap="round" stroke-linejoin="round"/></g>
<g><rect x="120.0" y="702.0" width="326.0" height="226.0" rx="10.0" fill="#FFFFFF" stroke="#E2E5EA" stroke-width="1.6"/><path d="M 120 714 L 120 712 Q 120 702 130 702 L 436 702 Q 446 702 446 712 L 446 714 Z" fill="#FFC629"/><rect x="136.0" y="720.0" width="178.0" height="16.0" rx="3.0" fill="#2F6FD6"/><rect x="150.0" y="748.0" width="110.0" height="80.0" rx="4.0" fill="#A9C9EC"/><rect x="282.0" y="758.0" width="118.0" height="10.0" rx="4.0" fill="#2F6FD6"/><rect x="282.0" y="776.0" width="88.0" height="10.0" rx="4.0" fill="#2F6FD6"/><circle cx="300.0" cy="860.0" r="24.0" fill="#1F8A4C"/><rect x="346.0" y="842.0" width="58.0" height="58.0" rx="4.0" fill="#C9CDD4"/><path d="M 360 836 L 360 884 L 372 872 L 380 890 L 388 886 L 380 868 L 396 868 Z" fill="#0B0E1F" stroke="#FFFFFF" stroke-width="2" stroke-linecap="round" stroke-linejoin="round"/></g>
<g><rect x="670.0" y="742.0" width="316.0" height="186.0" rx="10.0" fill="#FFFFFF" stroke="#E2E5EA" stroke-width="1.6"/><path d="M 670 760 L 670 752 Q 670 742 680 742 L 976 742 Q 986 742 986 752 L 986 760 Z" fill="#13183A"/><path d="M 670 760 L 670 752 Q 670 742 680 742 L 732 742 L 732 760 Z" fill="#1F8A4C"/><rect x="686.0" y="778.0" width="6.0" height="112.0" rx="2.0" fill="#1F8A4C"/><rect x="706.0" y="786.0" width="150.0" height="8.0" rx="4.0" fill="#CCD1DA"/><rect x="706.0" y="802.0" width="180.0" height="8.0" rx="4.0" fill="#CCD1DA"/><rect x="706.0" y="818.0" width="140.0" height="8.0" rx="4.0" fill="#CCD1DA"/><rect x="706.0" y="834.0" width="170.0" height="8.0" rx="4.0" fill="#CCD1DA"/><rect x="706.0" y="850.0" width="120.0" height="8.0" rx="4.0" fill="#CCD1DA"/><rect x="706.0" y="866.0" width="160.0" height="8.0" rx="4.0" fill="#CCD1DA"/><rect x="892.0" y="792.0" width="72.0" height="72.0" rx="4.0" fill="#FFC629"/><rect x="904.0" y="812.0" width="48.0" height="6.0" rx="4.0" fill="#3A3A3A"/><rect x="904.0" y="826.0" width="48.0" height="6.0" rx="4.0" fill="#3A3A3A"/><rect x="904.0" y="840.0" width="48.0" height="6.0" rx="4.0" fill="#3A3A3A"/></g>
<g><rect x="1216.0" y="722.0" width="444.0" height="206.0" rx="14.0" fill="#FFFFFF" stroke="#C9B8DD" stroke-width="4"/><circle cx="1284.0" cy="796.0" r="44.0" fill="#54356F"/><path d="M 1262 812 L 1280 794 L 1290 804 L 1308 782" fill="none" stroke="#FFFFFF" stroke-width="4.5" stroke-linecap="round" stroke-linejoin="round"/><path d="M 1308 782 L 1308 794 M 1308 782 L 1296 782" fill="none" stroke="#FFFFFF" stroke-width="4.5" stroke-linecap="round" stroke-linejoin="round"/><rect x="1356.0" y="768.0" width="210.0" height="9.0" rx="4.0" fill="#CCD1DA"/><rect x="1356.0" y="792.0" width="240.0" height="9.0" rx="4.0" fill="#CCD1DA"/><rect x="1356.0" y="816.0" width="180.0" height="9.0" rx="4.0" fill="#CCD1DA"/><rect x="1356.0" y="860.0" width="150.0" height="24.0" rx="5.0" fill="#1F8A4C"/><rect x="1520.0" y="860.0" width="110.0" height="24.0" rx="5.0" fill="#FFC629"/></g>
<g><g transform="translate(428.65 61.04) scale(1.368)"><path d="M251.9,438h111v32.6h-111V438z" fill="#FFFFFF"/><path d="M133.4,461.8V228c0-9.4,7.6-17,17-17h318c9.4,0,17,7.6,17,17v233.8" fill="#484949"/><path d="M480,448V228c0-6.3-5.2-11.5-11.5-11.5h-318c-6.3,0-11.5,5.2-11.5,11.5v220H480z" fill="#8EB8DC"/><path d="M486,461.8h-1V228c0-9.1-7.4-16.5-16.5-16.5h-318c-9.1,0-16.5,7.4-16.5,16.5v233.8h-1V228
	c0.1-9.6,7.9-17.4,17.5-17.5h318c9.6,0.1,17.4,7.9,17.5,17.5V461.8z" fill="#0B0C0C"/><path d="M180.4,258h258v147.5h-258V258z" fill="#FFFFFF"/><path d="M437.4,259v145.5h-256V259H437.4 M439.4,257h-260v149.5h260V257z" fill="#0B0C0C"/><path d="M270.3,452.1h78.6v13.6h-78.6V452.1z" fill="#858686"/><path d="M341.5,460.5h-64.1c-3.8,0-7-4.1-7.3-8H81.4v21l52,6h352l52-6v-21H348.8C348.5,456.6,345.4,460.5,341.5,460.5z" fill="#CECECE"/><path d="M81.4,473.5l52,6h352l52-6H81.4z" fill="#858686"/><path d="M537.4,452.5H348.8c-0.2,4.1-3.3,8-7.3,8h-64.1c-3.8,0-7-4.1-7.3-8H81.4" fill="none" stroke="#484949" stroke-width="1.2"/><path d="M81.4,479.5h456v3h-456L81.4,479.5z" fill="#484949"/></g><g clip-path="url(#screen)"><rect x="675.4" y="414.0" width="58.2" height="201.7" fill="#1C2450"/><rect x="686.0" y="434.2" width="33.5" height="7.1" rx="2.0" fill="#5A6390"/><rect x="686.0" y="454.3" width="33.5" height="7.1" rx="2.0" fill="#5A6390"/><rect x="686.0" y="494.7" width="33.5" height="7.1" rx="2.0" fill="#5A6390"/><rect x="686.0" y="539.1" width="33.5" height="7.1" rx="2.0" fill="#5A6390"/><rect x="686.0" y="563.3" width="33.5" height="7.1" rx="2.0" fill="#5A6390"/><rect x="675.4" y="514.9" width="58.2" height="17.1" fill="#2EC1D4"/><rect x="686.0" y="517.9" width="28.2" height="7.1" rx="2.0" fill="#0E7FA0"/><rect x="747.7" y="429.1" width="26.5" height="11.1" rx="2.0" fill="#54356F"/><rect x="780.6" y="429.1" width="31.8" height="11.1" rx="2.0" fill="#2EC1D4"/><rect x="818.7" y="429.1" width="26.5" height="11.1" rx="2.0" fill="#1F8A4C"/><rect x="851.5" y="429.1" width="22.9" height="11.1" rx="2.0" fill="#FFC629"/><rect x="747.7" y="454.3" width="91.8" height="5.6" rx="2.0" fill="#CCD1DA"/><rect x="747.7" y="470.5" width="176.4" height="5.6" rx="2.0" fill="#CCD1DA"/><rect x="747.7" y="486.6" width="155.3" height="5.6" rx="2.0" fill="#CCD1DA"/><rect x="747.7" y="502.7" width="169.4" height="5.6" rx="2.0" fill="#CCD1DA"/><rect x="747.7" y="518.9" width="141.2" height="5.6" rx="2.0" fill="#CCD1DA"/><rect x="883.6" y="442.2" width="127.0" height="157.3" rx="4.0" fill="#EDEFF3"/><rect x="893.8" y="454.8" width="78.8" height="7.9" rx="2.0" fill="#CCD1DA"/><rect x="893.8" y="470.6" width="58.4" height="7.9" rx="2.0" fill="#CCD1DA"/><path d="M 926.8 546.1 L 926.8 505.2 A 40.9 40.9 0 0 1 937.0 585.7 Z" fill="#1C2450"/><path d="M 926.8 546.1 L 937.0 585.7 A 40.9 40.9 0 0 1 886.0 548.6 Z" fill="#1F8A4C"/><path d="M 926.8 546.1 L 886.0 548.6 A 40.9 40.9 0 0 1 902.8 513.0 Z" fill="#2EC1D4"/><path d="M 926.8 546.1 L 902.8 513.0 A 40.9 40.9 0 0 1 926.8 505.2 Z" fill="#FFC629"/><circle cx="972.5" cy="524.0" r="6.2" fill="#54356F"/><rect x="980.2" y="521.2" width="25.4" height="5.5" rx="2.0" fill="#CCD1DA"/><circle cx="972.5" cy="544.5" r="6.2" fill="#2EC1D4"/><rect x="980.2" y="541.7" width="25.4" height="5.5" rx="2.0" fill="#CCD1DA"/><circle cx="972.5" cy="565.0" r="6.2" fill="#1F8A4C"/><rect x="980.2" y="562.1" width="25.4" height="5.5" rx="2.0" fill="#CCD1DA"/><circle cx="972.5" cy="585.4" r="6.2" fill="#FFC629"/><rect x="980.2" y="582.6" width="25.4" height="5.5" rx="2.0" fill="#CCD1DA"/></g></g>
</svg>
