<svg width="749" height="464" viewBox="0 0 749 464" xmlns="http://www.w3.org/2000/svg" role="img" aria-hidden="true" focusable="false">
	<title>Research operations illustration</title>
	<g id="ResearchOps-home-illustration" stroke="none" stroke-width="1" fill="none" fill-rule="evenodd">
		<g id="ResearchOps-workflow-lines" fill="#FDF8F1" stroke="#0B0C0C" stroke-width="1" fill-rule="nonzero">
			<g id="Line-plan-to-session" transform="translate(256 76)">
				<circle cx="3.5" cy="3.5" r="3.5"/>
				<circle cx="17.5" cy="3.5" r="3.5"/>
				<circle cx="31.5" cy="3.5" r="3.5"/>
				<circle cx="45.5" cy="3.5" r="3.5"/>
				<circle cx="59.5" cy="3.5" r="3.5"/>
				<circle cx="73.5" cy="3.5" r="3.5"/>
				<circle cx="87.5" cy="3.5" r="3.5"/>
				<circle cx="101.5" cy="3.5" r="3.5"/>
				<circle cx="115.5" cy="3.5" r="3.5"/>
				<circle cx="129.5" cy="3.5" r="3.5"/>
			</g>
			<g id="Line-plan-down" transform="translate(520 93)">
				<circle cx="3.5" cy="3.5" r="3.5"/>
				<circle cx="3.5" cy="17.5" r="3.5"/>
				<circle cx="3.5" cy="31.5" r="3.5"/>
				<circle cx="3.5" cy="45.5" r="3.5"/>
				<circle cx="3.5" cy="59.5" r="3.5"/>
				<circle cx="3.5" cy="73.5" r="3.5"/>
			</g>
			<g id="Line-session-to-laptop" transform="translate(190 249)">
				<circle cx="3.5" cy="3.5" r="3.5"/>
				<circle cx="17.5" cy="3.5" r="3.5"/>
				<circle cx="31.5" cy="3.5" r="3.5"/>
				<circle cx="45.5" cy="3.5" r="3.5"/>
				<circle cx="59.5" cy="3.5" r="3.5"/>
				<circle cx="73.5" cy="3.5" r="3.5"/>
			</g>
		</g>

		<g id="ResearchOps-plan-card" transform="translate(419 2)" fill-rule="nonzero">
			<rect id="Plan-card-background" fill="#F3F2F1" x="0" y="0" width="330" height="104"/>
			<rect id="Plan-card-top-rule" fill="#0B0C0C" x="0" y="0" width="330" height="4"/>
			<rect id="Plan-card-title" fill="#0B0C0C" x="16" y="18" width="80" height="10"/>
			<rect id="Plan-card-body-1" fill="#0B0C0C" opacity="0.7" x="16" y="44" width="184" height="8"/>
			<rect id="Plan-card-body-2" fill="#0B0C0C" opacity="0.7" x="16" y="60" width="148" height="8"/>
			<rect id="Plan-card-project" fill="#FFDD00" x="16" y="80" width="58" height="13"/>
			<rect id="Plan-card-recruit" fill="#CCE2D8" x="84" y="80" width="60" height="13"/>
			<rect id="Plan-card-session" fill="#FCD6C3" x="154" y="80" width="58" height="13"/>
			<g id="Plan-card-operations-mark" transform="translate(246 20)" fill="#0B0C0C">
				<rect x="0" y="0" width="48" height="8"/>
				<rect x="0" y="17" width="32" height="8"/>
				<rect x="0" y="34" width="40" height="8"/>
			</g>
		</g>

		<g id="Research-session-window" class="repository-research-session" transform="translate(0 40)" fill-rule="nonzero">
			<polygon id="Session-window-frame" fill="#0B0C0C" points="0 0 274 0 274 183 0 183"/>
			<g id="Session-trace" transform="translate(8 5.5) scale(0.211475)">
				<rect fill="#1D70B8" x="0" y="0" width="1220" height="813"/>
				<rect fill="#28E3F2" x="104" y="80" width="329" height="289"/>
				<rect fill="#12436D" x="112" y="88" width="313" height="273"/>
				<rect fill="#12436D" x="445" y="80" width="328" height="289" rx="8"/>
				<rect fill="#12436D" x="786" y="80" width="328" height="289" rx="8"/>
				<rect fill="#12436D" x="104" y="381" width="328" height="289" rx="8"/>
				<rect fill="#12436D" x="445" y="381" width="329" height="289" rx="8"/>
				<rect fill="#12436D" x="786" y="381" width="328" height="289" rx="8"/>
				<g id="Session-participant-selected">
					<path fill="#1D70B8" d="M207 361V230c0-36 25-60 64-60s62 24 62 60v131H207z"/>
					<circle fill="#B69272" cx="271" cy="229" r="61"/>
					<path fill="#1D70B8" d="M209 228c23 2 43-5 55-25 18 22 38 27 68 27-2-35-28-60-61-60-36 0-62 24-62 58z"/>
					<path fill="#28E3F2" d="M194 361v-16c0-27 23-48 52-48h51c29 0 52 21 52 48v16H194z"/>
				</g>
				<g id="Session-participant-facilitator">
					<circle fill="#F4CCCC" cx="612" cy="229" r="64"/>
					<path fill="#F47738" d="M548 178c0-17 18-27 32-18 8-20 37-22 48-4 14-14 41-6 44 15 21 1 31 27 14 40-12 9-28 5-35-6-13 23-43 17-47-7-20 20-56 9-56-20z"/>
					<path fill="#55A789" d="M525 361v-14c0-24 20-40 48-40h76c28 0 42 16 42 40v14H525z"/>
				</g>
				<g id="Session-researcher-initial">
					<circle fill="#55A789" cx="946" cy="227" r="73"/>
					<path fill="#0B0C0C" d="M928 252v-56h24c12 0 19 8 19 18 0 8-5 14-13 17l17 21h-11l-15-20h-12v20h-9zm9-28h15c6 0 10-4 10-10 0-5-4-9-10-9h-15v19z"/>
				</g>
				<g id="Session-participant-bottom-left">
					<path fill="#D986B8" d="M209 631V524c0-33 23-45 62-45 38 0 61 12 61 45v107H209z"/>
					<circle fill="#F4CCCC" cx="271" cy="536" r="61"/>
					<path fill="#D986B8" d="M210 537c22 0 43-8 54-25 17 19 38 26 68 26-2-34-27-60-61-60-36 0-61 25-61 59z"/>
					<path fill="#55A789" d="M194 670v-17c0-26 23-47 52-47h51c29 0 52 21 52 47v17H194z"/>
				</g>
				<g id="Session-team-initial">
					<circle fill="#28E3F2" cx="606" cy="526" r="73"/>
					<path fill="#0B0C0C" d="M601 555v-45h-21v-9h52v9h-21v45h-10z"/>
				</g>
				<g id="Session-participant-bottom-right">
					<circle fill="#B69272" cx="950" cy="532" r="64"/>
					<path fill="#D2D2D2" d="M887 532c1-35 28-64 63-64s62 29 63 64c-31 0-52-11-63-35-11 24-32 35-63 35z"/>
					<path fill="#28E3F2" d="M865 670v-14c0-27 22-47 51-47h67c29 0 47 20 47 47v14H865z"/>
				</g>
				<g id="Session-speech-bubble">
					<path fill="#FFDD00" d="M428 39c35 0 61 19 61 58 0 37-28 58-61 58-13 0-25-3-36-9l-23 5c-7 1-11-5-8-11l11-23c-4-7-6-14-6-22 0-35 27-56 62-56z"/>
					<circle fill="#12436D" cx="399" cy="98" r="10"/>
					<circle fill="#12436D" cx="426" cy="98" r="10"/>
					<circle fill="#12436D" cx="453" cy="98" r="10"/>
				</g>
				<circle fill="#12436D" cx="468" cy="736" r="34"/>
				<circle fill="#12436D" cx="562" cy="736" r="34"/>
				<circle fill="#12436D" cx="656" cy="736" r="34"/>
				<circle fill="#28E3F2" cx="750" cy="736" r="34"/>
			</g>
		</g>

		<g id="Laptop" class="repository-laptop" transform="translate(272 192)" fill-rule="nonzero">
			<polygon id="Laptop-spacer" fill="#FFFFFF" points="170 227 281 227 281 260 170 260"/>
			<path id="Laptop-outline-highlight" fill="#F3F2F1" d="M405 251h-1V18c0-9.1-7.4-16.5-16.5-16.5h-318C60.4 1.5 53 8.9 53 18v233h-1V18C52.1 8.4 59.9 0.1 69.5 0h318C397.1 0.1 404.9 8.4 405 18v233z"/>
			<path id="Laptop-frame" fill="#1E1E1E" d="M52 251V18C52 8.1 59.6 0.5 69 0.5h318C396.4 0.5 404 8.1 404 18v233"/>
			<polygon id="Screen-background" fill="#293D5C" points="78 27 378 27 378 216 78 216"/>
			<path id="Screen-border" fill="#0B0C0C" d="M378.5 216.5h-301v-190h301v190zm-300-1h299v-188h-299v188z"/>
			<g id="Repository-service-page" class="repository-screen" transform="translate(102 48)">
				<polygon fill="#FFFFFF" points="0 1 258 1 258 149 0 149"/>
				<polygon fill="#1D70B8" points="0 0 258 0 258 25 0 25"/>
				<rect fill="#B1B4B6" x="17" y="42" width="82" height="9"/>
				<rect fill="#B1B4B6" x="17" y="60" width="171" height="9"/>
				<rect fill="#B1B4B6" x="17" y="78" width="171" height="9"/>
				<rect fill="#B1B4B6" x="17" y="96" width="113" height="9"/>
				<rect fill="#00703C" x="17" y="118" width="46" height="15"/>
				<rect fill="#0B0C0C" x="17" y="133" width="46" height="2"/>
				<rect fill="#FFDD00" x="74" y="118" width="64" height="15"/>
				<rect fill="#B1B4B6" x="150" y="118" width="65" height="15"/>
			</g>
			<path id="Laptop-base" fill="#D2CDC7" d="M260 250h-64c-3.8 0-7-4.1-7.3-8H0v21l52 6h352l52-6v-21H267.4c-0.3 4.1-3.4 8-7.4 8z"/>
			<polygon id="Laptop-base-shadow" fill="#5F5D5A" points="0 263 52 269 404 269 456 263"/>
			<path id="Laptop-base-rule" stroke="#F3F2F1" d="M456 242H267.4c-0.2 4.1-3.3 8-7.4 8h-64c-3.8 0-7-4.1-7.3-8H0"/>
			<polygon id="Laptop-keyboard" fill="#5F5D5A" points="188 242 268 242 268 255 188 255"/>
			<polygon id="Laptop-shadow" fill="#2F3030" points="0 269 456 269 456 272 0 272"/>
		</g>
	</g>
</svg>
