<svg width="749" height="464" viewBox="0 0 749 464" xmlns="http://www.w3.org/2000/svg" role="img" aria-hidden="true" focusable="false">
	<title>Research operations illustration</title>
	<g id="ResearchOps-home-illustration" fill="none" fill-rule="evenodd">
		<g id="Workflow-connector-nodes" fill="#FDF8F1" stroke="#0B0C0C" stroke-width="1.5" fill-rule="nonzero">
			<g id="Connector-plan-to-session" transform="translate(251 91)">
				<circle cx="3.5" cy="3.5" r="3.5"/>
				<circle cx="17.5" cy="3.5" r="3.5"/>
				<circle cx="31.5" cy="3.5" r="3.5"/>
			</g>
			<g id="Connector-session-to-notes" transform="translate(560 144)">
				<circle cx="3.5" cy="3.5" r="3.5"/>
				<circle cx="17.5" cy="3.5" r="3.5"/>
			</g>
			<g id="Connector-plan-to-evidence" transform="translate(88 142)">
				<circle cx="3.5" cy="3.5" r="3.5"/>
				<circle cx="3.5" cy="17.5" r="3.5"/>
				<circle cx="3.5" cy="31.5" r="3.5"/>
				<circle cx="3.5" cy="45.5" r="3.5"/>
				<circle cx="3.5" cy="59.5" r="3.5"/>
			</g>
			<g id="Connector-session-to-laptop-right-angle" transform="translate(430 220)">
				<circle cx="3.5" cy="3.5" r="3.5"/>
				<circle cx="3.5" cy="17.5" r="3.5"/>
				<circle cx="3.5" cy="31.5" r="3.5"/>
				<circle cx="17.5" cy="31.5" r="3.5"/>
				<circle cx="31.5" cy="31.5" r="3.5"/>
			</g>
			<g id="Connector-evidence-to-record" transform="translate(222 302)">
				<circle cx="3.5" cy="3.5" r="3.5"/>
				<circle cx="17.5" cy="3.5" r="3.5"/>
				<circle cx="31.5" cy="3.5" r="3.5"/>
			</g>
		</g>

		<g id="Study-plan-card" transform="translate(0 16)" fill-rule="nonzero">
			<rect fill="#F3F2F1" x="0" y="0" width="248" height="126"/>
			<rect fill="#1D70B8" x="0" y="0" width="248" height="30"/>
			<circle fill="#FFFFFF" cx="18" cy="15" r="6"/>
			<rect fill="#FFFFFF" x="34" y="10" width="88" height="5"/>
			<rect fill="#FFFFFF" x="34" y="19" width="46" height="4"/>
			<rect fill="#0B0C0C" x="18" y="48" width="70" height="8"/>
			<rect fill="#0B0C0C" opacity="0.72" x="18" y="65" width="180" height="6"/>
			<rect fill="#0B0C0C" opacity="0.72" x="18" y="78" width="132" height="6"/>
			<rect fill="#D2E2F1" x="18" y="98" width="56" height="16"/>
			<rect fill="#CCE2D8" x="82" y="98" width="58" height="16"/>
			<rect fill="#FFDD00" x="148" y="98" width="48" height="16"/>
			<path fill="#0B0C0C" d="M219 57h12v8h-3v-5h-6v5h-3v-8zm-4 8h20v26h-20V65zm4 5v16h12V70h-12z"/>
		</g>

		<g id="Research-session-window" class="repository-research-session" transform="translate(284 35)" fill-rule="nonzero">
			<polygon id="Session-window-frame" fill="#0B0C0C" points="0 0 274 0 274 183 0 183"/>
			<rect fill="#1D70B8" x="8" y="5.5" width="258" height="172"/>
			<rect fill="#28E3F2" x="30" y="28" width="70" height="56"/>
			<rect fill="#12436D" x="106" y="28" width="70" height="56"/>
			<rect fill="#12436D" x="182" y="28" width="62" height="56"/>
			<rect fill="#12436D" x="30" y="94" width="70" height="56"/>
			<rect fill="#12436D" x="106" y="94" width="70" height="56"/>
			<rect fill="#12436D" x="182" y="94" width="62" height="56"/>
			<circle fill="#B69272" cx="65" cy="58" r="16"/>
			<path fill="#F47738" d="M50 83v-8c0-14 8-24 15-24s15 10 15 24v8H50z"/>
			<circle fill="#F4CCCC" cx="141" cy="56" r="16"/>
			<path fill="#F47738" d="M126 45c0-10 8-18 18-18 9 0 16 8 16 18-10 7-22 7-34 0z"/>
			<circle fill="#55A789" cx="213" cy="56" r="18"/>
			<path fill="#0B0C0C" d="M207 64V48h9c6 0 10 3 10 8 0 4-2 7-6 8l7 8h-7l-6-7h-2v7h-5zm5-12v6h4c3 0 5-1 5-3s-2-3-5-3h-4z"/>
			<circle fill="#F4CCCC" cx="65" cy="122" r="16"/>
			<path fill="#D986B8" d="M50 149v-8c0-14 8-24 15-24s15 10 15 24v8H50z"/>
			<circle fill="#28E3F2" cx="141" cy="122" r="18"/>
			<path fill="#0B0C0C" d="M137 132v-16h-7v-5h19v5h-7v16h-5z"/>
			<circle fill="#B69272" cx="213" cy="122" r="16"/>
			<path fill="#D2D2D2" d="M197 122c2-12 9-20 16-20s14 8 16 20c-12 0-24-4-32-14z"/>
			<path fill="#28E3F2" d="M198 149v-7c0-13 8-22 15-22s15 9 15 22v7H198z"/>
			<path fill="#FFDD00" d="M112 14c18 0 31 10 31 30 0 18-14 29-31 29-6 0-12-2-18-5l-12 3c-4 1-7-3-5-7l5-12c-2-4-3-8-3-12 0-15 14-26 33-26z"/>
			<circle fill="#12436D" cx="101" cy="43" r="4"/>
			<circle fill="#12436D" cx="114" cy="43" r="4"/>
			<circle fill="#12436D" cx="127" cy="43" r="4"/>
		</g>

		<g id="Notes-card" transform="translate(583 94)" fill-rule="nonzero">
			<rect fill="#FFDD00" x="0" y="0" width="166" height="110"/>
			<rect fill="#0B0C0C" x="18" y="18" width="92" height="8"/>
			<rect fill="#0B0C0C" x="18" y="38" width="126" height="6"/>
			<rect fill="#0B0C0C" x="18" y="52" width="108" height="6"/>
			<rect fill="#0B0C0C" x="18" y="66" width="134" height="6"/>
			<circle fill="#0B0C0C" cx="145" cy="18" r="9"/>
			<path fill="#FFFFFF" d="M141 17l3 4 7-9 3 3-9 12-7-7 3-3z"/>
		</g>

		<g id="Evidence-card" transform="translate(24 236)" fill-rule="nonzero">
			<rect fill="#FFFFFF" x="0" y="0" width="198" height="108"/>
			<rect fill="#0B0C0C" x="16" y="18" width="78" height="8"/>
			<circle fill="#D2E2F1" cx="34" cy="54" r="18"/>
			<circle fill="#F4CCCC" cx="38" cy="51" r="10"/>
			<path fill="#1D70B8" d="M22 72v-7c0-12 8-20 16-20s16 8 16 20v7H22z"/>
			<rect fill="#0B0C0C" x="70" y="42" width="58" height="6"/>
			<rect fill="#B1B4B6" x="70" y="57" width="88" height="6"/>
			<rect fill="#0B0C0C" x="70" y="72" width="34" height="6"/>
			<rect fill="#FFDD00" x="16" y="90" width="44" height="9"/>
			<rect fill="#CCE2D8" x="70" y="90" width="58" height="9"/>
		</g>

		<g id="Record-card" transform="translate(258 284)" fill-rule="nonzero">
			<rect fill="#FFFFFF" x="0" y="0" width="120" height="88"/>
			<circle fill="#0B0C0C" cx="24" cy="22" r="14"/>
			<rect fill="#0B0C0C" x="48" y="16" width="48" height="6"/>
			<rect fill="#B1B4B6" x="48" y="32" width="58" height="6"/>
			<rect fill="#B1B4B6" x="18" y="60" width="82" height="6"/>
		</g>

		<g id="Laptop" class="repository-laptop" transform="translate(292 192)" fill-rule="nonzero">
			<polygon id="Laptop-spacer" fill="#FFFFFF" points="170 227 281 227 281 260 170 260"/>
			<path id="Laptop-outline-highlight" fill="#F3F2F1" d="M405 251h-1V18c0-9.1-7.4-16.5-16.5-16.5h-318C60.4 1.5 53 8.9 53 18v233h-1V18C52.1 8.4 59.9 0.1 69.5 0h318C397.1 0.1 404.9 8.4 405 18v233z"/>
			<path id="Laptop-frame" fill="#1E1E1E" d="M52 251V18C52 8.1 59.6 0.5 69 0.5h318C396.4 0.5 404 8.1 404 18v233"/>
			<polygon id="Screen-background" fill="#293D5C" points="78 27 378 27 378 216 78 216"/>
			<path id="Screen-border" fill="#0B0C0C" d="M378.5 216.5h-301v-190h301v190zm-300-1h299v-188h-299v188z"/>
			<g id="Repository-service-page" class="repository-screen" transform="translate(102 48)">
				<polygon fill="#FFFFFF" points="0 1 258 1 258 149 0 149"/>
				<polygon fill="#1D70B8" points="0 0 258 0 258 25 0 25"/>
				<rect fill="#B1B4B6" x="17" y="42" width="82" height="9"/>
				<rect fill="#B1B4B6" x="17" y="60" width="171" height="9"/>
				<rect fill="#B1B4B6" x="17" y="78" width="171" height="9"/>
				<rect fill="#B1B4B6" x="17" y="96" width="113" height="9"/>
				<rect fill="#00703C" x="17" y="118" width="46" height="15"/>
				<rect fill="#0B0C0C" x="17" y="133" width="46" height="2"/>
				<rect fill="#FFDD00" x="74" y="118" width="64" height="15"/>
				<rect fill="#B1B4B6" x="150" y="118" width="65" height="15"/>
			</g>
			<path id="Laptop-base" fill="#D2CDC7" d="M260 250h-64c-3.8 0-7-4.1-7.3-8H0v21l52 6h352l52-6v-21H267.4c-0.3 4.1-3.4 8-7.4 8z"/>
			<polygon id="Laptop-base-shadow" fill="#5F5D5A" points="0 263 52 269 404 269 456 263"/>
			<path id="Laptop-base-rule" stroke="#F3F2F1" d="M456 242H267.4c-0.2 4.1-3.3 8-7.4 8h-64c-3.8 0-7-4.1-7.3-8H0"/>
			<polygon id="Laptop-keyboard" fill="#5F5D5A" points="188 242 268 242 268 255 188 255"/>
			<polygon id="Laptop-shadow" fill="#2F3030" points="0 269 456 269 456 272 0 272"/>
		</g>
	</g>
</svg>