<svg xmlns="http://www.w3.org/2000/svg" viewBox="0 0 610 483" role="img" aria-hidden="true" focusable="false">
	<style>
		.dark{fill:#0b0c0c}.ink{fill:#2f3030}.mid{fill:#505a5f}.grey{fill:#b1b4b6}.pale{fill:#8eb8dc}.blue{fill:#1d70b8}.white{fill:#fff}.yellow{fill:#ffdd00}.green{fill:#11875a}.red{fill:#d4351c}.purple{fill:#4c2c92}.connector{fill:#0b0c0c}.stroke{fill:none;stroke:#0b0c0c;stroke-width:4;stroke-linecap:square;stroke-linejoin:miter}.thin{fill:none;stroke:#0b0c0c;stroke-width:3;stroke-linecap:square;stroke-linejoin:miter}
	</style>

	<g class="repository-illustration-ground">
		<rect class="pale" x="35" y="421" width="540" height="24"/>
		<rect class="dark" x="24" y="445" width="562" height="7"/>
		<path class="grey" d="M78 452h455l-45 25H124z"/>
		<rect class="mid" x="116" y="468" width="374" height="6"/>
	</g>

	<g class="connector connector--left-vertical">
		<rect x="154" y="90" width="8" height="8"/>
		<rect x="154" y="112" width="8" height="8"/>
		<rect x="154" y="134" width="8" height="8"/>
		<rect x="154" y="156" width="8" height="8"/>
		<rect x="154" y="178" width="8" height="8"/>
	</g>
	<g class="connector connector--right-vertical">
		<rect x="455" y="97" width="8" height="8"/>
		<rect x="455" y="119" width="8" height="8"/>
		<rect x="455" y="141" width="8" height="8"/>
		<rect x="455" y="163" width="8" height="8"/>
		<rect x="455" y="185" width="8" height="8"/>
	</g>
	<g class="connector connector--left-horizontal">
		<rect x="164" y="184" width="8" height="8"/>
		<rect x="186" y="184" width="8" height="8"/>
		<rect x="208" y="184" width="8" height="8"/>
		<rect x="230" y="184" width="8" height="8"/>
	</g>
	<g class="connector connector--right-horizontal">
		<rect x="380" y="184" width="8" height="8"/>
		<rect x="402" y="184" width="8" height="8"/>
		<rect x="424" y="184" width="8" height="8"/>
		<rect x="446" y="184" width="8" height="8"/>
	</g>
	<g class="connector connector--lower-left">
		<rect x="111" y="316" width="8" height="8"/>
		<rect x="133" y="316" width="8" height="8"/>
		<rect x="155" y="316" width="8" height="8"/>
		<rect x="177" y="316" width="8" height="8"/>
		<rect x="199" y="316" width="8" height="8"/>
		<rect x="221" y="316" width="8" height="8"/>
	</g>
	<g class="connector connector--lower-right">
		<rect x="382" y="316" width="8" height="8"/>
		<rect x="404" y="316" width="8" height="8"/>
		<rect x="426" y="316" width="8" height="8"/>
		<rect x="448" y="316" width="8" height="8"/>
		<rect x="470" y="316" width="8" height="8"/>
		<rect x="492" y="316" width="8" height="8"/>
	</g>

	<g class="repository-search-card">
		<rect class="white" x="35" y="52" width="132" height="97"/>
		<rect class="stroke" x="35" y="52" width="132" height="97"/>
		<rect class="blue" x="35" y="52" width="132" height="22"/>
		<rect class="dark" x="52" y="90" width="70" height="8"/>
		<rect class="grey" x="52" y="110" width="92" height="7"/>
		<rect class="grey" x="52" y="128" width="58" height="7"/>
		<circle class="white" cx="135" cy="96" r="15"/>
		<circle class="thin" cx="135" cy="96" r="15"/>
		<rect class="dark" x="146" y="107" width="24" height="6" transform="rotate(45 146 107)"/>
	</g>

	<g class="repository-review-card">
		<rect class="white" x="430" y="58" width="142" height="112"/>
		<rect class="stroke" x="430" y="58" width="142" height="112"/>
		<rect class="blue" x="430" y="58" width="142" height="24"/>
		<rect class="green" x="452" y="105" width="32" height="32"/>
		<path class="dark" d="m460 121 8 8 21-23 7 7-28 31-16-16z"/>
		<rect class="dark" x="502" y="107" width="45" height="8"/>
		<rect class="grey" x="502" y="128" width="39" height="7"/>
		<rect class="yellow" x="502" y="145" width="54" height="11"/>
	</g>

	<g class="repository-source-card">
		<rect class="white" x="54" y="266" width="104" height="113"/>
		<rect class="stroke" x="54" y="266" width="104" height="113"/>
		<rect class="blue" x="54" y="266" width="104" height="23"/>
		<rect class="dark" x="72" y="309" width="54" height="8"/>
		<rect class="grey" x="72" y="328" width="68" height="7"/>
		<rect class="grey" x="72" y="345" width="45" height="7"/>
		<rect class="yellow" x="72" y="362" width="28" height="15"/>
		<rect class="green" x="108" y="362" width="32" height="15"/>
	</g>

	<g class="repository-audit-card">
		<rect class="white" x="488" y="264" width="91" height="122"/>
		<rect class="stroke" x="488" y="264" width="91" height="122"/>
		<rect class="blue" x="488" y="264" width="91" height="23"/>
		<path class="white" d="M514 313h31l14 14v38h-45z"/>
		<path class="thin" d="M514 313h31l14 14v38h-45z"/>
		<path class="grey" d="M546 314v15h14z"/>
		<rect class="red" x="505" y="296" width="31" height="13"/>
		<rect class="purple" x="543" y="296" width="20" height="13"/>
		<rect class="grey" x="525" y="338" width="25" height="6"/>
		<rect class="grey" x="525" y="353" width="25" height="6"/>
	</g>

	<g class="repository-screen">
		<path class="ink" d="M207 114h198c12 0 22 10 22 22v172H185V136c0-12 10-22 22-22z"/>
		<rect class="pale" x="199" y="130" width="214" height="163"/>
		<rect class="white" x="213" y="151" width="186" height="122"/>
		<rect class="blue" x="213" y="151" width="186" height="26"/>
		<rect class="stroke" x="213" y="151" width="186" height="122"/>

		<g class="repository-screen-search">
			<rect class="white" x="232" y="195" width="90" height="24"/>
			<rect class="thin" x="232" y="195" width="90" height="24"/>
			<circle class="white" cx="339" cy="207" r="15"/>
			<circle class="thin" cx="339" cy="207" r="15"/>
			<rect class="dark" x="349" y="219" width="22" height="5" transform="rotate(45 349 219)"/>
		</g>

		<g class="repository-screen-results">
			<rect class="grey" x="232" y="238" width="55" height="8"/>
			<rect class="grey" x="232" y="257" width="82" height="7"/>
			<rect class="grey" x="329" y="238" width="49" height="8"/>
			<rect class="yellow" x="329" y="257" width="49" height="14"/>
		</g>

		<g class="repository-screen-taxonomy">
			<rect class="green" x="232" y="285" width="48" height="16"/>
			<rect class="yellow" x="288" y="285" width="57" height="16"/>
			<rect class="purple" x="353" y="285" width="44" height="16"/>
		</g>
	</g>

	<g class="repository-laptop">
		<path class="dark" d="M163 303h286l35 74H128z"/>
		<path class="grey" d="M174 313h264l20 43H154z"/>
		<rect class="white" x="190" y="323" width="96" height="10"/>
		<rect class="white" x="300" y="323" width="96" height="10"/>
		<rect class="white" x="196" y="341" width="186" height="8"/>
		<rect class="mid" x="128" y="377" width="356" height="9"/>
	</g>
</svg>
