<svg width="749" height="464" viewBox="0 0 749 464" xmlns="http://www.w3.org/2000/svg" role="img" aria-hidden="true" focusable="false">
	<title>Research repository illustration</title>
	<g id="Research-repository-illustration" stroke="none" stroke-width="1" fill="none" fill-rule="evenodd">
		<g id="Repository-lines" class="connector" fill="#FDF8F1" fill-rule="nonzero">
			<g id="Line-evidence-to-repository" class="connector--left-horizontal" transform="translate(262 93)">
				<circle cx="3.5" cy="3.5" r="3.5"/>
				<circle cx="17.5" cy="3.5" r="3.5"/>
				<circle cx="31.5" cy="3.5" r="3.5"/>
				<circle cx="45.5" cy="3.5" r="3.5"/>
				<circle cx="59.5" cy="3.5" r="3.5"/>
				<circle cx="73.5" cy="3.5" r="3.5"/>
				<circle cx="87.5" cy="3.5" r="3.5"/>
				<circle cx="101.5" cy="3.5" r="3.5"/>
				<circle cx="115.5" cy="3.5" r="3.5"/>
				<circle cx="129.5" cy="3.5" r="3.5"/>
			</g>
			<g id="Line-evidence-down" class="connector--left-vertical" transform="translate(364 93)">
				<circle cx="3.5" cy="17.5" r="3.5"/>
				<circle cx="3.5" cy="31.5" r="3.5"/>
				<circle cx="3.5" cy="45.5" r="3.5"/>
				<circle cx="3.5" cy="59.5" r="3.5"/>
				<circle cx="3.5" cy="73.5" r="3.5"/>
				<circle cx="3.5" cy="87.5" r="3.5"/>
				<circle cx="3.5" cy="101.5" r="3.5"/>
			</g>
			<g id="Line-card-down" class="connector--right-vertical" transform="translate(534 107)">
				<circle cx="3.5" cy="17.5" r="3.5"/>
				<circle cx="3.5" cy="31.5" r="3.5"/>
				<circle cx="3.5" cy="45.5" r="3.5"/>
				<circle cx="3.5" cy="59.5" r="3.5"/>
				<circle cx="3.5" cy="73.5" r="3.5"/>
				<circle cx="3.5" cy="87.5" r="3.5"/>
			</g>
			<g id="Line-session-to-laptop" class="connector--lower-left" transform="translate(187 237)">
				<circle cx="3.5" cy="3.5" r="3.5"/>
				<circle cx="17.5" cy="3.5" r="3.5"/>
				<circle cx="31.5" cy="3.5" r="3.5"/>
				<circle cx="45.5" cy="3.5" r="3.5"/>
				<circle cx="59.5" cy="3.5" r="3.5"/>
				<circle cx="73.5" cy="3.5" r="3.5"/>
				<circle cx="87.5" cy="3.5" r="3.5"/>
				<circle cx="101.5" cy="3.5" r="3.5"/>
				<circle cx="115.5" cy="3.5" r="3.5"/>
				<circle cx="129.5" cy="3.5" r="3.5"/>
			</g>
		</g>

		<g id="Research-session-window" class="repository-research-session" transform="translate(0 56)" fill-rule="nonzero">
			<polygon id="Session-window-frame" fill="#0B0C0C" points="0 0 274 0 274 183 0 183"/>
			<g id="Session-trace" transform="translate(8 5.5) scale(0.211475)">
				<rect fill="#1D70B8" x="0" y="0" width="1220" height="813"/>
				<rect fill="#28E3F2" x="104" y="80" width="329" height="289"/>
				<rect fill="#12436D" x="112" y="88" width="313" height="273"/>
				<rect fill="#12436D" x="445" y="80" width="328" height="289" rx="8"/>
				<rect fill="#12436D" x="786" y="80" width="328" height="289" rx="8"/>
				<rect fill="#12436D" x="104" y="381" width="328" height="289" rx="8"/>
				<rect fill="#12436D" x="445" y="381" width="329" height="289" rx="8"/>
				<rect fill="#12436D" x="786" y="381" width="328" height="289" rx="8"/>
				<g id="Session-participant-selected">
					<path fill="#1D70B8" d="M207 361V230c0-36 25-60 64-60s62 24 62 60v131H207z"/>
					<circle fill="#B69272" cx="271" cy="229" r="61"/>
					<path fill="#1D70B8" d="M209 228c23 2 43-5 55-25 18 22 38 27 68 27-2-35-28-60-61-60-36 0-62 24-62 58z"/>
					<path fill="#28E3F2" d="M194 361v-16c0-27 23-48 52-48h51c29 0 52 21 52 48v16H194z"/>
				</g>
				<g id="Session-participant-facilitator">
					<circle fill="#F4CCCC" cx="612" cy="229" r="64"/>
					<path fill="#F47738" d="M548 178c0-17 18-27 32-18 8-20 37-22 48-4 14-14 41-6 44 15 21 1 31 27 14 40-12 9-28 5-35-6-13 23-43 17-47-7-20 20-56 9-56-20z"/>
					<path fill="#55A789" d="M525 361v-14c0-24 20-40 48-40h76c28 0 42 16 42 40v14H525z"/>
				</g>
				<g id="Session-researcher-initial">
					<circle fill="#55A789" cx="946" cy="227" r="73"/>
					<path fill="#0B0C0C" d="M928 252v-56h24c12 0 19 8 19 18 0 8-5 14-13 17l17 21h-11l-15-20h-12v20h-9zm9-28h15c6 0 10-4 10-10 0-5-4-9-10-9h-15v19z"/>
				</g>
				<g id="Session-participant-bottom-left">
					<path fill="#D986B8" d="M209 631V524c0-33 23-45 62-45 38 0 61 12 61 45v107H209z"/>
					<circle fill="#F4CCCC" cx="271" cy="536" r="61"/>
					<path fill="#D986B8" d="M210 537c22 0 43-8 54-25 17 19 38 26 68 26-2-34-27-60-61-60-36 0-61 25-61 59z"/>
					<path fill="#55A789" d="M194 670v-17c0-26 23-47 52-47h51c29 0 52 21 52 47v17H194z"/>
				</g>
				<g id="Session-team-initial">
					<circle fill="#28E3F2" cx="606" cy="526" r="73"/>
					<path fill="#0B0C0C" d="M585 555v-44h-18v-10h76v10h-18v44h-40z"/>
				</g>
				<g id="Session-participant-bottom-right">
					<circle fill="#B69272" cx="950" cy="532" r="64"/>
					<path fill="#D2D2D2" d="M887 532c1-35 28-64 63-64s62 29 63 64c-31 0-52-11-63-35-11 24-32 35-63 35z"/>
					<path fill="#28E3F2" d="M865 670v-14c0-27 22-47 51-47h67c29 0 47 20 47 47v14H865z"/>
				</g>
				<g id="Session-speech-bubble">
					<path fill="#FFDD00" d="M428 39c35 0 61 19 61 58 0 37-28 58-61 58-13 0-25-3-36-9l-23 5c-7 1-11-5-8-11l11-23c-4-7-6-14-6-22 0-35 27-56 62-56z"/>
					<circle fill="#12436D" cx="399" cy="98" r="10"/>
					<circle fill="#12436D" cx="426" cy="98" r="10"/>
					<circle fill="#12436D" cx="453" cy="98" r="10"/>
				</g>
				<circle fill="#12436D" cx="468" cy="736" r="34"/>
				<circle fill="#12436D" cx="562" cy="736" r="34"/>
				<circle fill="#12436D" cx="656" cy="736" r="34"/>
				<circle fill="#28E3F2" cx="750" cy="736" r="34"/>
			</g>
		</g>

		<g id="Candidate-record-card" class="repository-review-card" transform="translate(419 2)" fill-rule="nonzero">
			<rect id="Record-card-background" fill="#F3F2F1" x="0" y="0" width="330" height="104"/>
			<rect id="Record-card-top-rule" fill="#B1B4B6" x="0" y="3" width="330" height="2"/>
			<rect id="Record-title-1" fill="#0B0C0C" x="15" y="17" width="30" height="10"/>
			<rect id="Record-title-2" fill="#0B0C0C" x="50" y="17" width="20" height="10"/>
			<rect id="Record-title-3" fill="#0B0C0C" x="15" y="32" width="45" height="8"/>
			<rect id="Record-title-4" fill="#0B0C0C" x="64" y="32" width="45" height="8"/>
			<rect id="Record-title-5" fill="#0B0C0C" x="114" y="32" width="45" height="8"/>
			<rect id="Record-body" fill="#0B0C0C" opacity="0.7" x="15" y="47" width="80" height="8"/>
			<rect id="Record-body-2" fill="#0B0C0C" x="15" y="64" width="45" height="8"/>
			<rect id="Record-maturity" fill="#CCE2D8" x="15" y="76" width="45" height="12"/>
			<rect id="Record-review-chip" fill="#FFDD00" x="68" y="76" width="58" height="12"/>
		</g>

		<g id="Laptop" class="repository-laptop" transform="translate(272 192)" fill-rule="nonzero">
			<polygon id="Laptop-spacer" fill="#FFFFFF" points="170 227 281 227 281 260 170 260"/>
			<path id="Laptop-outline-highlight" fill="#F3F2F1" d="M405 251h-1V18c0-9.1-7.4-16.5-16.5-16.5h-318C60.4 1.5 53 8.9 53 18v233h-1V18C52.1 8.4 59.9 0.1 69.5 0h318C397.1 0.1 404.9 8.4 405 18v233z"/>
			<path id="Laptop-frame" fill="#1E1E1E" d="M52 251V18C52 8.1 59.6 0.5 69 0.5h318C396.4 0.5 404 8.1 404 18v233"/>
			<polygon id="Screen-background" fill="#293D5C" points="78 27 378 27 378 216 78 216"/>
			<path id="Screen-border" fill="#0B0C0C" d="M378.5 216.5h-301v-190h301v190zm-300-1h299v-188h-299v188z"/>
			<g id="Repository-service-page" class="repository-screen" transform="translate(102 48)">
				<polygon fill="#FFFFFF" points="0 1 258 1 258 149 0 149"/>
				<polygon fill="#1D70B8" points="0 0 258 0 258 25 0 25"/>
				<g id="Crown-logo" transform="translate(11.6, 3)" fill="#FFFFFF">
                <path d="M14.3805585,6.92421349 C13.8369035,7.14167549 13.2932485,6.86984799 13.0757865,6.3805585 C12.8583245,5.891269 13.130152,5.29324851 13.6194415,5.07578651 C14.108731,4.85832451 14.7067515,5.13015201 14.9242135,5.6194415 C15.1416755,6.108731 14.869848,6.70675149 14.3805585,6.92421349 M10.3805585,10.9242135 C9.891269,11.1416755 9.29324851,10.869848 9.07578651,10.3805585 C8.85832451,9.891269 9.13015201,9.29324851 9.6194415,9.07578651 C10.108731,8.85832451 10.7067515,9.13015201 10.9242135,9.6194415 C11.1416755,10.108731 10.869848,10.7067515 10.3805585,10.9242135 M17.3753695,7.92421349 C16.8337579,8.14167549 16.2921463,7.86984799 16.0755017,7.3805585 C15.858857,6.891269 16.1296628,6.29324851 16.6171132,6.07578651 C17.1045637,5.85832451 17.7003364,6.13015201 17.916981,6.6194415 C18.1336257,7.108731 17.916981,7.70675149 17.3753695,7.92421349 M19.3805585,10.9242135 C18.8369035,11.1416755 18.2932485,10.869848 18.0757865,10.3805585 C17.8583245,9.891269 18.130152,9.29324851 18.6194415,9.07578651 C19.108731,8.85832451 19.7067515,9.13015201 19.9242135,9.6194415 C20.1416755,10.108731 19.869848,10.7067515 19.3805585,10.9242135 M10.6060606,2.81196581 L12,3.52991453 L12,1.4957265 L10.6060606,1.91452991 L10.4848485,1.79487179 L11.030303,0 L8.96969697,0 L9.51515152,1.79487179 L9.39393939,1.91452991 C9.33333333,1.97435897 8,1.4957265 8,1.4957265 L8,3.52991453 L9.39393939,2.81196581 C9.45454545,2.87179487 9.45454545,2.93162393 9.51515152,2.93162393 L8.72727273,5.32478632 C8.66666667,5.44444444 8.66666667,5.56410256 8.66666667,5.68376068 C8.66666667,6.34188034 9.15151515,6.88034188 9.81818182,7 L10.2424242,7 C10.8484848,6.88034188 11.3939394,6.34188034 11.3939394,5.74358974 C11.3939394,5.62393162 11.3939394,5.5042735 11.3333333,5.38461538 L10.5454545,2.99145299 C10.4848485,2.87179487 10.5454545,2.87179487 10.6060606,2.81196581 M5.62463055,6.92421349 C6.11208097,7.14167549 6.70785371,6.86984799 6.92449835,6.3805585 C7.14114298,5.891269 6.87033719,5.29324851 6.38288676,5.07578651 C5.89543634,4.85832451 5.2996636,5.13015201 5.08301896,5.6194415 C4.86637433,6.108731 5.08301896,6.70675149 5.62463055,6.92421349 M2.6194415,7.92421349 C3.108731,8.14167549 3.70675149,7.86984799 3.92421349,7.3805585 C4.14167549,6.891269 3.86984799,6.29324851 3.3805585,6.07578651 C2.891269,5.85832451 2.29324851,6.13015201 2.07578651,6.6194415 C1.85832451,7.108731 2.13015201,7.70675149 2.6194415,7.92421349 M0.624630547,10.9242135 C1.11208097,11.1416755 1.70785371,10.869848 1.92449835,10.3805585 C2.14114298,9.891269 1.87033719,9.29324851 1.38288676,9.07578651 C0.895436339,8.85832451 0.299663597,9.13015201 0.0830189633,9.6194415 C-0.13362567,10.108731 0.0830189633,10.7067515 0.624630547,10.9242135 M10,18.518797 C12.75,18.518797 15.375,18.6992481 17.6875,19 C18.375,16.2932331 19.1875,14.7894737 20,13.7067669 L18.4375,13.1654135 C18.5625,13.9473684 18.625,14.3082707 18.4375,14.7894737 C18.1875,14.5488722 17.9375,14.1278195 17.75,13.406015 L17,15.8120301 C17.4375,15.5112782 17.8125,15.3308271 18.25,15.2706767 C17.5625,16.7744361 16.625,17.1353383 16.0625,17.075188 C15.375,16.9548872 15,16.3533835 15.125,15.8120301 C15.3125,15.0902256 16.0625,14.9097744 16.4375,15.7518797 C17.125,14.3684211 15.9375,13.9473684 15.1875,14.3684211 C16.375,13.2255639 16.5,12.2631579 15.5625,11 C14.25,11.962406 14.25,12.924812 14.8125,14.3082707 C14.0625,13.4661654 12.8125,13.9473684 13.25,15.2706767 C13.8125,14.4285714 14.5625,14.9699248 14.4375,15.7518797 C14.3125,16.4135338 13.375,17.0150376 12.25,16.8947368 C10.5625,16.7744361 10.4375,15.6315789 10.4375,14.7293233 C10.875,14.6691729 11.625,15.0300752 12.25,15.8721805 L12.5,13.2857143 C11.8125,13.9473684 11.1875,14.1278195 10.5,14.1278195 C10.75,13.406015 11.8125,12.3233083 11.8125,12.3233083 L8.4375,12.3233083 C8.4375,12.3233083 9.5,13.4661654 9.75,14.1278195 C9.0625,14.1278195 8.4375,14.0075188 7.75,13.2857143 L8,15.8721805 C8.625,15.0300752 9.375,14.6691729 9.8125,14.7293233 C9.75,15.6315789 9.6875,16.7744361 8,16.8947368 C6.8125,17.0150376 5.875,16.4135338 5.8125,15.7518797 C5.6875,14.9699248 6.4375,14.4285714 7,15.2706767 C7.4375,13.887218 6.25,13.4661654 5.4375,14.3082707 C6,12.9849624 6,11.962406 4.6875,11 C3.75,12.2030075 3.875,13.2255639 5.0625,14.3684211 C4.3125,13.9473684 3.125,14.3684211 3.8125,15.7518797 C4.1875,14.9097744 4.9375,15.0902256 5.125,15.8120301 C5.25,16.3533835 4.9375,16.9548872 4.1875,17.075188 C3.625,17.1954887 2.6875,16.7744361 2,15.2706767 C2.375,15.2706767 2.75,15.4511278 3.25,15.8120301 L2.5,13.406015 C2.3125,14.0676692 2.0625,14.5488722 1.8125,14.7894737 C1.625,14.3082707 1.6875,13.9473684 1.8125,13.1654135 L0,13.7067669 C0.8125,14.7894737 1.625,16.2932331 2.3125,19 C4.625,18.6992481 7.25,18.518797 10,18.518797" id="Shape"></path>
            </g>
				<rect fill="#B1B4B6" x="17" y="42" width="82" height="9"/>
				<rect fill="#B1B4B6" x="17" y="60" width="171" height="9"/>
				<rect fill="#B1B4B6" x="17" y="78" width="171" height="9"/>
				<rect fill="#B1B4B6" x="17" y="96" width="113" height="9"/>
				<rect fill="#00703C" x="17" y="118" width="46" height="15"/>
				<rect fill="#0B0C0C" x="17" y="133" width="46" height="2"/>
				<rect fill="#FFDD00" x="74" y="118" width="64" height="15"/>
				<rect fill="#B1B4B6" x="150" y="118" width="65" height="15"/>
			</g>
			<path id="Laptop-base" fill="#D2CDC7" d="M260 250h-64c-3.8 0-7-4.1-7.3-8H0v21l52 6h352l52-6v-21H267.4c-0.3 4.1-3.4 8-7.4 8z"/>
			<polygon id="Laptop-base-shadow" fill="#5F5D5A" points="0 263 52 269 404 269 456 263"/>
			<path id="Laptop-base-rule" stroke="#F3F2F1" d="M456 242H267.4c-0.2 4.1-3.3 8-7.4 8h-64c-3.8 0-7-4.1-7.3-8H0"/>
			<polygon id="Laptop-keyboard" fill="#5F5D5A" points="188 242 268 242 268 255 188 255"/>
			<polygon id="Laptop-shadow" fill="#2F3030" points="0 269 456 269 456 272 0 272"/>
		</g>
	</g>
</svg>
