<svg width="264.188" height="124" xmlns="http://www.w3.org/2000/svg" xmlns:xlink="http://www.w3.org/1999/xlink" xml:space="preserve" overflow="hidden" role="img" aria-labelledby="daas-logo-title"><title id="daas-logo-title">DaaS</title><g transform="translate(-752.812 -2285)"><rect x="752.812" y="2314" width="5" height="48" fill="#FFFFFF"/><path d="M772 2347C772 2338.72 778.716 2332 787 2332 795.284 2332 802 2338.72 802 2347 802 2355.28 795.284 2362 787 2362 778.716 2362 772 2355.28 772 2347Z" fill="#FFFFFF" fill-rule="evenodd" fill-opacity="0.458824"/><path d="M781 2329C781 2320.72 787.716 2314 796 2314 804.284 2314 811 2320.72 811 2329 811 2337.28 804.284 2344 796 2344 787.716 2344 781 2337.28 781 2329Z" fill="#FFFFFF" fill-rule="evenodd" fill-opacity="0.458824"/><path d="M791 2347C791 2338.72 797.716 2332 806 2332 814.284 2332 821 2338.72 821 2347 821 2355.28 814.284 2362 806 2362 797.716 2362 791 2355.28 791 2347Z" fill="#FFFFFF" fill-rule="evenodd" fill-opacity="0.458824"/><text fill="#FFFFFF" font-family="Arial, Arial_MSFontService, sans-serif" font-weight="400" font-size="58" transform="matrix(1 0 0 1 835.188 2360)">DaaS</text></g></svg>
