<svg
	xmlns="http://www.w3.org/2000/svg"
	width="280"
	height="120"
	viewBox="0 0 280 120"
	role="img"
	aria-labelledby="leds-logo-title"
>
	<title id="leds-logo-title">Law Enforcement Data Service</title>
	<g fill="none" stroke="#7b2f8f" stroke-linecap="round">
		<circle cx="60" cy="60" r="53.25" stroke-width="9.5" />
		<circle cx="60" cy="60" r="36.9" stroke-width="6" opacity="0.45" />
		<circle cx="60" cy="60" r="25.2" stroke-width="4.5" />
		<circle cx="60" cy="60" r="15.3" stroke-width="2.5" opacity="0.45" />
	</g>
	<g class="leds-logo-wordmark" fill="#7b2f8f" fill-rule="nonzero">
		<path d="M137.828 13.727 L141.438 13.727 L141.438 27.895 L149.992 27.895 L149.992 31 L137.828 31 Z M153.824 27.66 Q153.824 28.574 154.492 29.102 Q155.16 29.629 156.074 29.629 Q157.188 29.629 158.23 29.113 Q159.988 28.258 159.988 26.313 L159.988 24.613 Q159.602 24.859 158.992 25.023 Q158.383 25.188 157.797 25.258 L156.52 25.422 Q155.371 25.574 154.797 25.902 Q153.824 26.453 153.824 27.66 Z M158.934 23.395 Q159.66 23.301 159.906 22.785 Q160.047 22.504 160.047 21.977 Q160.047 20.898 159.279 20.412 Q158.512 19.926 157.082 19.926 Q155.43 19.926 154.738 20.816 Q154.352 21.309 154.234 22.281 L152.266 22.281 Q152.324 19.961 153.771 19.053 Q155.219 18.145 157.129 18.145 Q159.344 18.145 160.727 18.988 Q162.098 19.832 162.098 21.613 L162.098 28.844 Q162.098 29.172 162.232 29.371 Q162.367 29.57 162.801 29.57 Q162.941 29.57 163.117 29.553 Q163.293 29.535 163.492 29.5 L163.492 31.059 Q163 31.199 162.742 31.234 Q162.484 31.27 162.039 31.27 Q160.949 31.27 160.457 30.496 Q160.199 30.086 160.094 29.336 Q159.449 30.18 158.242 30.801 Q157.035 31.422 155.582 31.422 Q153.836 31.422 152.729 30.361 Q151.621 29.301 151.621 27.707 Q151.621 25.961 152.711 25 Q153.801 24.039 155.57 23.816 Z M157.188 18.145 Z M166.527 18.449 L168.941 28.34 L171.391 18.449 L173.758 18.449 L176.219 28.281 L178.785 18.449 L180.895 18.449 L177.25 31 L175.059 31 L172.504 21.285 L170.031 31 L167.84 31 L164.219 18.449 Z" />
		<path d="M149.852 47.453 L141.461 47.453 L141.461 51.895 L151.023 51.895 L151.023 55 L137.934 55 L137.934 37.727 L150.602 37.727 L150.602 40.785 L141.461 40.785 L141.461 44.453 L149.852 44.453 Z M153.555 42.449 L155.559 42.449 L155.559 44.23 Q156.449 43.129 157.445 42.648 Q158.441 42.168 159.66 42.168 Q162.332 42.168 163.27 44.031 Q163.785 45.051 163.785 46.949 L163.785 55 L161.641 55 L161.641 47.09 Q161.641 45.941 161.301 45.238 Q160.738 44.066 159.262 44.066 Q158.512 44.066 158.031 44.219 Q157.164 44.477 156.508 45.25 Q155.98 45.871 155.822 46.533 Q155.664 47.195 155.664 48.426 L155.664 55 L153.555 55 Z M158.512 42.145 Z M167.43 40.539 Q167.477 39.227 167.887 38.617 Q168.625 37.539 170.734 37.539 Q170.934 37.539 171.145 37.551 Q171.355 37.563 171.625 37.586 L171.625 39.508 Q171.297 39.484 171.15 39.479 Q171.004 39.473 170.875 39.473 Q169.914 39.473 169.727 39.971 Q169.539 40.469 169.539 42.508 L171.625 42.508 L171.625 44.172 L169.516 44.172 L169.516 55 L167.43 55 L167.43 44.172 L165.684 44.172 L165.684 42.508 L167.43 42.508 L167.43 40.539 Z M178.551 53.641 Q180.648 53.641 181.428 52.053 Q182.207 50.465 182.207 48.52 Q182.207 46.762 181.645 45.66 Q180.754 43.926 178.574 43.926 Q176.641 43.926 175.762 45.402 Q174.883 46.879 174.883 48.965 Q174.883 50.969 175.762 52.305 Q176.641 53.641 178.551 53.641 Z M178.633 42.086 Q181.059 42.086 182.734 43.703 Q184.41 45.32 184.41 48.461 Q184.41 51.496 182.934 53.477 Q181.457 55.457 178.352 55.457 Q175.762 55.457 174.238 53.705 Q172.715 51.953 172.715 49 Q172.715 45.836 174.32 43.961 Q175.926 42.086 178.633 42.086 Z M178.563 42.145 Z M186.977 42.449 L188.98 42.449 L188.98 44.617 Q189.227 43.984 190.188 43.076 Q191.148 42.168 192.402 42.168 Q192.461 42.168 192.602 42.18 Q192.742 42.191 193.082 42.227 L193.082 44.453 Q192.895 44.418 192.736 44.406 Q192.578 44.395 192.391 44.395 Q190.797 44.395 189.941 45.42 Q189.086 46.445 189.086 47.781 L189.086 55 L186.977 55 Z M199.75 42.086 Q201.871 42.086 203.201 43.117 Q204.531 44.148 204.801 46.668 L202.75 46.668 Q202.563 45.508 201.895 44.74 Q201.227 43.973 199.75 43.973 Q197.734 43.973 196.867 45.941 Q196.305 47.219 196.305 49.094 Q196.305 50.98 197.102 52.27 Q197.898 53.559 199.609 53.559 Q200.922 53.559 201.689 52.756 Q202.457 51.953 202.75 50.559 L204.801 50.559 Q204.449 53.055 203.043 54.209 Q201.637 55.363 199.445 55.363 Q196.984 55.363 195.52 53.564 Q194.055 51.766 194.055 49.07 Q194.055 45.766 195.66 43.926 Q197.266 42.086 199.75 42.086 Z M199.422 42.145 Z M212.137 42.168 Q213.473 42.168 214.727 42.795 Q215.98 43.422 216.637 44.418 Q217.27 45.367 217.48 46.633 Q217.668 47.5 217.668 49.398 L208.469 49.398 Q208.527 51.309 209.371 52.463 Q210.215 53.617 211.984 53.617 Q213.637 53.617 214.621 52.527 Q215.184 51.895 215.418 51.063 L217.492 51.063 Q217.41 51.754 216.947 52.604 Q216.484 53.453 215.91 53.992 Q214.949 54.93 213.531 55.258 Q212.77 55.445 211.809 55.445 Q209.465 55.445 207.836 53.74 Q206.207 52.035 206.207 48.965 Q206.207 45.941 207.848 44.055 Q209.488 42.168 212.137 42.168 Z M215.5 47.723 Q215.371 46.352 214.902 45.531 Q214.035 44.008 212.008 44.008 Q210.555 44.008 209.57 45.057 Q208.586 46.105 208.527 47.723 Z M211.938 42.145 Z M220.258 42.449 L222.344 42.449 L222.344 44.23 Q223.094 43.305 223.703 42.883 Q224.746 42.168 226.07 42.168 Q227.57 42.168 228.484 42.906 Q229 43.328 229.422 44.148 Q230.125 43.141 231.074 42.654 Q232.023 42.168 233.207 42.168 Q235.738 42.168 236.652 43.996 Q237.145 44.98 237.145 46.645 L237.145 55 L234.953 55 L234.953 46.281 Q234.953 45.027 234.326 44.559 Q233.699 44.09 232.797 44.09 Q231.555 44.09 230.658 44.922 Q229.762 45.754 229.762 47.699 L229.762 55 L227.617 55 L227.617 46.809 Q227.617 45.531 227.313 44.945 Q226.832 44.066 225.52 44.066 Q224.324 44.066 223.346 44.992 Q222.367 45.918 222.367 48.344 L222.367 55 L220.258 55 Z M245.477 42.168 Q246.813 42.168 248.066 42.795 Q249.32 43.422 249.977 44.418 Q250.609 45.367 250.82 46.633 Q251.008 47.5 251.008 49.398 L241.809 49.398 Q241.867 51.309 242.711 52.463 Q243.555 53.617 245.324 53.617 Q246.977 53.617 247.961 52.527 Q248.523 51.895 248.758 51.063 L250.832 51.063 Q250.75 51.754 250.287 52.604 Q249.824 53.453 249.25 53.992 Q248.289 54.93 246.871 55.258 Q246.109 55.445 245.148 55.445 Q242.805 55.445 241.176 53.74 Q239.547 52.035 239.547 48.965 Q239.547 45.941 241.188 44.055 Q242.828 42.168 245.477 42.168 Z M248.84 47.723 Q248.711 46.352 248.242 45.531 Q247.375 44.008 245.348 44.008 Q243.895 44.008 242.91 45.057 Q241.926 46.105 241.867 47.723 Z M245.277 42.145 Z M253.598 42.449 L255.602 42.449 L255.602 44.23 Q256.492 43.129 257.488 42.648 Q258.484 42.168 259.703 42.168 Q262.375 42.168 263.313 44.031 Q263.828 45.051 263.828 46.949 L263.828 55 L261.684 55 L261.684 47.09 Q261.684 45.941 261.344 45.238 Q260.781 44.066 259.305 44.066 Q258.555 44.066 258.074 44.219 Q257.207 44.477 256.551 45.25 Q256.023 45.871 255.865 46.533 Q255.707 47.195 255.707 48.426 L255.707 55 L253.598 55 Z M258.555 42.145 Z M267.367 38.945 L269.5 38.945 L269.5 42.449 L271.504 42.449 L271.504 44.172 L269.5 44.172 L269.5 52.363 Q269.5 53.02 269.945 53.242 Q270.191 53.371 270.766 53.371 Q270.918 53.371 271.094 53.365 Q271.27 53.359 271.504 53.336 L271.504 55 Q271.141 55.105 270.748 55.152 Q270.355 55.199 269.898 55.199 Q268.422 55.199 267.895 54.443 Q267.367 53.688 267.367 52.48 L267.367 44.172 L265.668 44.172 L265.668 42.449 L267.367 42.449 Z" />
		<path d="M145.27 79 L137.828 79 L137.828 61.727 L145.27 61.727 Q146.875 61.75 147.941 62.102 Q149.758 62.699 150.883 64.293 Q151.785 65.582 152.113 67.082 Q152.441 68.582 152.441 69.941 Q152.441 73.387 151.059 75.777 Q149.184 79 145.27 79 Z M147.953 66.133 Q147.121 64.727 144.66 64.727 L141.332 64.727 L141.332 76 L144.66 76 Q147.215 76 148.223 73.48 Q148.773 72.098 148.773 70.188 Q148.773 67.551 147.953 66.133 Z M156.496 75.66 Q156.496 76.574 157.164 77.102 Q157.832 77.629 158.746 77.629 Q159.859 77.629 160.902 77.113 Q162.66 76.258 162.66 74.313 L162.66 72.613 Q162.273 72.859 161.664 73.023 Q161.055 73.188 160.469 73.258 L159.191 73.422 Q158.043 73.574 157.469 73.902 Q156.496 74.453 156.496 75.66 Z M161.605 71.395 Q162.332 71.301 162.578 70.785 Q162.719 70.504 162.719 69.977 Q162.719 68.898 161.951 68.412 Q161.184 67.926 159.754 67.926 Q158.102 67.926 157.41 68.816 Q157.023 69.309 156.906 70.281 L154.938 70.281 Q154.996 67.961 156.443 67.053 Q157.891 66.145 159.801 66.145 Q162.016 66.145 163.398 66.988 Q164.77 67.832 164.77 69.613 L164.77 76.844 Q164.77 77.172 164.904 77.371 Q165.039 77.57 165.473 77.57 Q165.613 77.57 165.789 77.553 Q165.965 77.535 166.164 77.5 L166.164 79.059 Q165.672 79.199 165.414 79.234 Q165.156 79.27 164.711 79.27 Q163.621 79.27 163.129 78.496 Q162.871 78.086 162.766 77.336 Q162.121 78.18 160.914 78.801 Q159.707 79.422 158.254 79.422 Q156.508 79.422 155.4 78.361 Q154.293 77.301 154.293 75.707 Q154.293 73.961 155.383 73 Q156.473 72.039 158.242 71.816 Z M159.859 66.145 Z M168.648 62.945 L170.781 62.945 L170.781 66.449 L172.785 66.449 L172.785 68.172 L170.781 68.172 L170.781 76.363 Q170.781 77.02 171.227 77.242 Q171.473 77.371 172.047 77.371 Q172.199 77.371 172.375 77.365 Q172.551 77.359 172.785 77.336 L172.785 79 Q172.422 79.105 172.029 79.152 Q171.637 79.199 171.18 79.199 Q169.703 79.199 169.176 78.443 Q168.648 77.688 168.648 76.48 L168.648 68.172 L166.949 68.172 L166.949 66.449 L168.648 66.449 Z M176.512 75.66 Q176.512 76.574 177.18 77.102 Q177.848 77.629 178.762 77.629 Q179.875 77.629 180.918 77.113 Q182.676 76.258 182.676 74.313 L182.676 72.613 Q182.289 72.859 181.68 73.023 Q181.07 73.188 180.484 73.258 L179.207 73.422 Q178.059 73.574 177.484 73.902 Q176.512 74.453 176.512 75.66 Z M181.621 71.395 Q182.348 71.301 182.594 70.785 Q182.734 70.504 182.734 69.977 Q182.734 68.898 181.967 68.412 Q181.199 67.926 179.77 67.926 Q178.117 67.926 177.426 68.816 Q177.039 69.309 176.922 70.281 L174.953 70.281 Q175.012 67.961 176.459 67.053 Q177.906 66.145 179.816 66.145 Q182.031 66.145 183.414 66.988 Q184.785 67.832 184.785 69.613 L184.785 76.844 Q184.785 77.172 184.92 77.371 Q185.055 77.57 185.488 77.57 Q185.629 77.57 185.805 77.553 Q185.98 77.535 186.18 77.5 L186.18 79.059 Q185.688 79.199 185.43 79.234 Q185.172 79.27 184.727 79.27 Q183.637 79.27 183.145 78.496 Q182.887 78.086 182.781 77.336 Q182.137 78.18 180.93 78.801 Q179.723 79.422 178.27 79.422 Q176.523 79.422 175.416 78.361 Q174.309 77.301 174.309 75.707 Q174.309 73.961 175.398 73 Q176.488 72.039 178.258 71.816 Z M179.875 66.145 Z" />
		<path d="M144.098 100.504 Q145.375 100.504 146.172 100.223 Q147.684 99.684 147.684 98.219 Q147.684 97.363 146.934 96.895 Q146.184 96.438 144.578 96.086 L142.75 95.676 Q140.055 95.066 139.023 94.352 Q137.277 93.156 137.277 90.613 Q137.277 88.293 138.965 86.758 Q140.652 85.223 143.922 85.223 Q146.652 85.223 148.58 86.67 Q150.508 88.117 150.602 90.871 L147.133 90.871 Q147.039 89.313 145.773 88.656 Q144.93 88.223 143.676 88.223 Q142.281 88.223 141.449 88.785 Q140.617 89.348 140.617 90.355 Q140.617 91.281 141.438 91.738 Q141.965 92.043 143.688 92.453 L146.664 93.168 Q148.621 93.637 149.617 94.422 Q151.164 95.641 151.164 97.949 Q151.164 100.316 149.354 101.881 Q147.543 103.445 144.238 103.445 Q140.863 103.445 138.93 101.904 Q136.996 100.363 136.996 97.668 L140.441 97.668 Q140.605 98.852 141.086 99.438 Q141.965 100.504 144.098 100.504 Z M158.781 90.168 Q160.117 90.168 161.371 90.795 Q162.625 91.422 163.281 92.418 Q163.914 93.367 164.125 94.633 Q164.313 95.5 164.313 97.398 L155.113 97.398 Q155.172 99.309 156.016 100.463 Q156.859 101.617 158.629 101.617 Q160.281 101.617 161.266 100.527 Q161.828 99.895 162.063 99.063 L164.137 99.063 Q164.055 99.754 163.592 100.604 Q163.129 101.453 162.555 101.992 Q161.594 102.93 160.176 103.258 Q159.414 103.445 158.453 103.445 Q156.109 103.445 154.48 101.74 Q152.852 100.035 152.852 96.965 Q152.852 93.941 154.492 92.055 Q156.133 90.168 158.781 90.168 Z M162.145 95.723 Q162.016 94.352 161.547 93.531 Q160.68 92.008 158.652 92.008 Q157.199 92.008 156.215 93.057 Q155.23 94.105 155.172 95.723 Z M158.582 90.145 Z M166.961 90.449 L168.965 90.449 L168.965 92.617 Q169.211 91.984 170.172 91.076 Q171.133 90.168 172.387 90.168 Q172.445 90.168 172.586 90.18 Q172.727 90.191 173.066 90.227 L173.066 92.453 Q172.879 92.418 172.721 92.406 Q172.563 92.395 172.375 92.395 Q170.781 92.395 169.926 93.42 Q169.07 94.445 169.07 95.781 L169.07 103 L166.961 103 Z M175.926 90.449 L179.277 100.668 L182.781 90.449 L185.09 90.449 L180.355 103 L178.105 103 L173.477 90.449 Z M186.895 90.508 L189.039 90.508 L189.039 103 L186.895 103 Z M186.895 85.785 L189.039 85.785 L189.039 88.176 L186.895 88.176 Z M197.066 90.086 Q199.188 90.086 200.518 91.117 Q201.848 92.148 202.117 94.668 L200.066 94.668 Q199.879 93.508 199.211 92.74 Q198.543 91.973 197.066 91.973 Q195.051 91.973 194.184 93.941 Q193.621 95.219 193.621 97.094 Q193.621 98.98 194.418 100.27 Q195.215 101.559 196.926 101.559 Q198.238 101.559 199.006 100.756 Q199.773 99.953 200.066 98.559 L202.117 98.559 Q201.766 101.055 200.359 102.209 Q198.953 103.363 196.762 103.363 Q194.301 103.363 192.836 101.564 Q191.371 99.766 191.371 97.07 Q191.371 93.766 192.977 91.926 Q194.582 90.086 197.066 90.086 Z M196.738 90.145 Z M209.453 90.168 Q210.789 90.168 212.043 90.795 Q213.297 91.422 213.953 92.418 Q214.586 93.367 214.797 94.633 Q214.984 95.5 214.984 97.398 L205.785 97.398 Q205.844 99.309 206.688 100.463 Q207.531 101.617 209.301 101.617 Q210.953 101.617 211.938 100.527 Q212.5 99.895 212.734 99.063 L214.809 99.063 Q214.727 99.754 214.264 100.604 Q213.801 101.453 213.227 101.992 Q212.266 102.93 210.848 103.258 Q210.086 103.445 209.125 103.445 Q206.781 103.445 205.152 101.74 Q203.523 100.035 203.523 96.965 Q203.523 93.941 205.164 92.055 Q206.805 90.168 209.453 90.168 Z M212.816 95.723 Q212.688 94.352 212.219 93.531 Q211.352 92.008 209.324 92.008 Q207.871 92.008 206.887 93.057 Q205.902 94.105 205.844 95.723 Z M209.254 90.145 Z" />
	</g>
</svg>
